<?xml version="1.0" encoding="UTF-8"?>
<svg width="487.72px" height="141.733px" viewBox="0 0 487.72 141.733" version="1.1" xmlns="http://www.w3.org/2000/svg" xmlns:xlink="http://www.w3.org/1999/xlink">
    <title>EPFL_Logo_WHITE_PROD</title>
    <g id="Page-1" stroke="none" stroke-width="1" fill="none" fill-rule="evenodd">
        <g id="EPFL_Logo_WHITE_PROD" transform="translate(-0.000000, 0.000000)" fill="#FFFFFE">
            <polyline id="Fill-1" points="7.10542736e-15 57.765 30.568 57.765 30.568 26.203 102.527 26.203 102.527 0 7.10542736e-15 0 7.10542736e-15 57.765"></polyline>
            <polyline id="Fill-2" points="7.10542736e-15 141.733 102.527 141.733 102.527 115.529 30.568 115.529 30.568 83.968 7.10542736e-15 83.968 7.10542736e-15 141.733"></polyline>
            <polygon id="Fill-3" points="30.568 83.968 96.374 83.968 96.374 57.765 30.568 57.765"></polygon>
            <path d="M208.622,50.097 C207.098,52.16 205.08,53.76 202.568,54.889 C200.052,56.02 197.14,56.783 193.833,57.175 C190.524,57.57 187.085,57.765 183.51,57.765 L159.294,57.765 L159.294,26.208 L183.51,26.208 C187.085,26.208 190.524,26.407 193.833,26.798 C197.14,27.192 200.052,27.955 202.568,29.084 C205.08,30.215 207.098,31.811 208.622,33.876 C210.142,35.94 210.905,38.646 210.905,41.987 C210.905,45.329 210.142,48.032 208.622,50.097 Z M229.862,13.017 C225.956,9.108 220.895,5.958 214.676,3.575 C208.455,1.193 200.911,0 192.048,0 L128.727,0 L128.727,141.733 L159.294,141.733 L159.294,83.962 L192.048,83.962 C200.911,83.962 208.455,82.772 214.676,80.389 C220.895,78.004 225.956,74.861 229.862,70.947 C233.765,67.037 236.61,62.545 238.397,57.473 C240.185,52.403 241.077,47.238 241.077,41.982 C241.077,36.606 240.185,31.412 238.397,26.4 C236.61,21.389 233.765,16.929 229.862,13.017 L229.862,13.017 Z" id="Fill-4"></path>
            <polyline id="Fill-5" points="415.761 115.529 415.761 0 385.194 0 385.194 141.733 487.72 141.733 487.72 115.529 415.761 115.529"></polyline>
            <polyline id="Fill-6" points="260.529 57.765 291.097 57.765 291.097 26.203 363.056 26.203 363.056 0 260.529 0 260.529 57.765"></polyline>
            <polygon id="Fill-7" points="260.529 141.733 291.097 141.733 291.097 83.968 260.529 83.968"></polygon>
            <polygon id="Fill-8" points="291.097 83.968 356.903 83.968 356.903 57.765 291.097 57.765"></polygon>
        </g>
    </g>
</svg>